<?xml version="1.0" encoding="UTF-8" standalone="no"?>
<svg
   xmlns:dc="http://purl.org/dc/elements/1.1/"
   xmlns:cc="http://creativecommons.org/ns#"
   xmlns:rdf="http://www.w3.org/1999/02/22-rdf-syntax-ns#"
   xmlns:svg="http://www.w3.org/2000/svg"
   xmlns="http://www.w3.org/2000/svg"
   xmlns:sodipodi="http://sodipodi.sourceforge.net/DTD/sodipodi-0.dtd"
   xmlns:inkscape="http://www.inkscape.org/namespaces/inkscape"
   version="1.1"
   id="svg2"
   xml:space="preserve"
   width="700"
   height="700"
   viewBox="0 0 700 700"
   sodipodi:docname="adote-um-pix-logo.svg"
   inkscape:export-filename="G:\Users\suitedoalex\sites\pix-bc-logo-0.png"
   inkscape:export-xdpi="561.73712"
   inkscape:export-ydpi="561.73712"
   inkscape:version="1.0.2-2 (e86c870879, 2021-01-15)"><metadata
     id="metadata8"><rdf:RDF><cc:Work
         rdf:about=""><dc:format>image/svg+xml</dc:format><dc:type
           rdf:resource="http://purl.org/dc/dcmitype/StillImage" /><dc:title /></cc:Work></rdf:RDF></metadata><defs
     id="defs6"><clipPath
       clipPathUnits="userSpaceOnUse"
       id="clipPath18"><path
         d="M 0,1080 H 1920 V 0 H 0 Z"
         id="path16"
         inkscape:connector-curvature="0" /></clipPath><clipPath
       clipPathUnits="userSpaceOnUse"
       id="clipPath26"><path
         d="M 2.31224,1078.65 H 1921.71 V 0.354599 H 2.31224 Z"
         id="path24"
         inkscape:connector-curvature="0" /></clipPath><radialGradient
       fx="0"
       fy="0"
       cx="0"
       cy="0"
       r="1"
       gradientUnits="userSpaceOnUse"
       gradientTransform="matrix(2279.4458,0,0,1280.5419,962.0127,539.50366)"
       spreadMethod="pad"
       id="radialGradient36"><stop
         style="stop-opacity:1;stop-color:#ffffff"
         offset="0"
         id="stop32" /><stop
         style="stop-opacity:1;stop-color:#000000"
         offset="1"
         id="stop34" /></radialGradient><clipPath
       clipPathUnits="userSpaceOnUse"
       id="clipPath58"><path
         d="M 1.52588e-5,1080.19 H 1921.71 V -6.05673 H 1.52588e-5 Z"
         id="path56"
         inkscape:connector-curvature="0" /></clipPath><radialGradient
       fx="0"
       fy="0"
       cx="0"
       cy="0"
       r="1"
       gradientUnits="userSpaceOnUse"
       gradientTransform="matrix(2282.1917,0,0,1289.9785,960.85657,537.06549)"
       spreadMethod="pad"
       id="radialGradient68"><stop
         style="stop-opacity:1;stop-color:#ffffff"
         offset="0"
         id="stop64" /><stop
         style="stop-opacity:1;stop-color:#000000"
         offset="1"
         id="stop66" /></radialGradient><clipPath
       clipPathUnits="userSpaceOnUse"
       id="clipPath90"><path
         d="M 11.7831,1078.21 H 1910.67 V 42.0222 H 11.7831 Z"
         id="path88"
         inkscape:connector-curvature="0" /></clipPath><clipPath
       clipPathUnits="userSpaceOnUse"
       id="clipPath94"><path
         d="M 11.7831,1017.59 H 1879.91 V 42.0222 H 11.7831 Z"
         id="path92"
         inkscape:connector-curvature="0" /></clipPath><clipPath
       clipPathUnits="userSpaceOnUse"
       id="clipPath98"><path
         d="M 121.596,1078.21 H 1910.67 V 117.8 H 121.596 Z"
         id="path96"
         inkscape:connector-curvature="0" /></clipPath><clipPath
       clipPathUnits="userSpaceOnUse"
       id="clipPath866"><path
         d="M 0,1080 H 1920 V 0 H 0 Z"
         id="path864"
         inkscape:connector-curvature="0" /></clipPath><clipPath
       clipPathUnits="userSpaceOnUse"
       id="clipPath886"><path
         d="m 1609.83,82.2588 h 26.48 V 63.5831 h -26.48 z"
         id="path884"
         inkscape:connector-curvature="0" /></clipPath><clipPath
       clipPathUnits="userSpaceOnUse"
       id="clipPath902"><path
         d="m 1600.18,103.19 h 22.86 V 76.7676 h -22.86 z"
         id="path900"
         inkscape:connector-curvature="0" /></clipPath><clipPath
       clipPathUnits="userSpaceOnUse"
       id="clipPath918"><path
         d="m 1618.19,89.9323 h 22.12 V 63.6456 h -22.12 z"
         id="path916"
         inkscape:connector-curvature="0" /></clipPath><clipPath
       clipPathUnits="userSpaceOnUse"
       id="clipPath934"><path
         d="m 1604.2,103.117 h 26.46 V 84.441 h -26.46 z"
         id="path932"
         inkscape:connector-curvature="0" /></clipPath><clipPath
       clipPathUnits="userSpaceOnUse"
       id="clipPath970"><path
         d="M 0,1080 H 1920 V 0 H 0 Z"
         id="path968"
         inkscape:connector-curvature="0" /></clipPath><clipPath
       clipPathUnits="userSpaceOnUse"
       id="clipPath970-8"><path
         d="M 0,1080 H 1920 V 0 H 0 Z"
         id="path968-3"
         inkscape:connector-curvature="0" /></clipPath><clipPath
       clipPathUnits="userSpaceOnUse"
       id="clipPath970-9"><path
         d="M 0,1080 H 1920 V 0 H 0 Z"
         id="path968-7"
         inkscape:connector-curvature="0" /></clipPath></defs><sodipodi:namedview
     pagecolor="#ffffff"
     bordercolor="#666666"
     borderopacity="1"
     objecttolerance="10"
     gridtolerance="10"
     guidetolerance="10"
     inkscape:pageopacity="0"
     inkscape:pageshadow="2"
     inkscape:window-width="912"
     inkscape:window-height="696"
     id="namedview4"
     showgrid="false"
     inkscape:zoom="0.3592361"
     inkscape:cx="-265.98596"
     inkscape:cy="301.50384"
     inkscape:window-x="91"
     inkscape:window-y="0"
     inkscape:window-maximized="0"
     inkscape:current-layer="g10"
     inkscape:document-rotation="0" /><g
     id="g10"
     inkscape:groupmode="layer"
     inkscape:label="pix-banco-central-logo"
     transform="matrix(1.3333333,0,0,-1.3333333,0,700)"><path
       d="m 375.95915,215.15379 c -15.89505,0 -30.84313,5.9613 -42.08135,16.78265 l -60.76403,58.52826 c -4.26436,4.1204 -11.70122,4.10756 -15.96558,0 l -60.98506,-58.743 c -11.24009,-10.81952 -26.18817,-16.78083 -42.08324,-16.78083 h -11.9737 l 76.95635,-74.12892 c 12.99833,-12.51945 29.51114,-26.07337 46.52047,-25.05162 14.4424,0.86758 29.48078,14.4215 40.51751,25.05162 l 77.17927,74.34184 z"
       style="fill:#0088aa;fill-opacity:1;fill-rule:nonzero;stroke:none;stroke-width:1.87007"
       id="path994"
       inkscape:connector-curvature="0"
       sodipodi:nodetypes="sccccsccsccs" /><path
       d="m 447.11385,360.47818 -41.52145,13.70411 c 4.94362,-27.50882 -10.73637,3.0241 -11.84108,2.64213 l -23.76242,-8.21586 c -10.31919,-3.56785 -45.87033,20.18346 -53.61589,12.71729 l -30.61826,-46.84574 c -5.68391,-5.47677 -13.15509,-8.21882 -20.62055,-8.21882 -7.47118,0 -14.93664,2.74205 -20.62241,8.21331 l -36.91022,45.80242 c -7.74748,7.46631 -41.70454,-8.1692 -52.66837,-8.1692 h -24.36796 c -5.80588,-41.06101 -21.76898,2.71787 -22.75027,3.07409 L 78.049936,360.47818 c -24.035048,-23.14958 -24.035048,-60.68482 0,-83.83805 l 46.822034,-45.10065 c 0.9813,0.35606 2.02357,0.60933 3.13443,0.60933 h 26.07385 c 10.96383,0 21.69327,4.28193 29.44076,11.74824 l 60.98506,58.74297 c 11.02288,10.60847 30.23721,10.61398 41.24868,-0.006 L 346.51877,244.111 c 7.74556,-7.46813 18.47693,-11.75006 29.44074,-11.75006 h 21.20359 c 1.17566,0 2.28462,-0.24588 3.31353,-0.64239 l 46.63722,44.9208 c 24.03503,23.15322 24.03503,60.68847 0,83.83804"
       style="fill:#2ca089;fill-opacity:1;fill-rule:nonzero;stroke:none;stroke-width:1.87007"
       id="path1002"
       inkscape:connector-curvature="0"
       sodipodi:nodetypes="ccssccsccscccccssccccssccc" /><g
       id="g4"
       transform="matrix(1.0522434,0,0,-0.98864322,14.729633,494.03843)"><path
         d="m 433.08639,67.001 c -24.7,-24.7 -57.4,-38.2 -92.3,-38.2 -34.9,0 -67.7,13.6 -92.4,38.3 l -12.9,12.9 -13.1,-13.1 c -24.7,-24.7 -57.6,-38.4 -92.5,-38.4 -34.800002,0 -67.600002,13.6 -92.200002,38.2 -24.7,24.7 -38.29999936,57.5 -38.19999937,92.4 0,34.9 13.69999937,67.6 38.39999937,92.3 l 187.800002,187.8 c 2.6,2.6 6.1,4 9.5,4 3.4,0 6.9,-1.3 9.5,-3.9 l 188.2,-187.5 c 24.7,-24.7 38.3,-57.5 38.3,-92.4 0.1,-34.9 -13.4,-67.7 -38.1,-92.4 z m -19.2,165.7 -178.7,178 -178.300002,-178.3 c -19.6,-19.6 -30.4,-45.6 -30.4,-73.3 0,-27.7 10.7,-53.7 30.3,-73.2 19.5,-19.5 45.500002,-30.3 73.100002,-30.3 27.7,0 53.8,10.8 73.4,30.4 l 22.6,22.6 c 5.3,5.3 13.8,5.3 19.1,0 l 22.4,-22.4 c 19.6,-19.6 45.7,-30.4 73.3,-30.4 27.6,0 53.6,10.8 73.2,30.3 19.6,19.6 30.3,45.6 30.3,73.3 0.1,27.7 -10.7,53.7 -30.3,73.3 z"
         id="path2" /></g><ellipse
       style="fill:#2ca089;stroke:#ffffff;stroke-width:2.91347;stroke-opacity:0"
       id="path244-5"
       cx="386.18497"
       cy="-335.6908"
       transform="scale(1,-1)"
       rx="84.182968"
       ry="81.088013" /><ellipse
       style="fill:#2ca089;stroke:#ffffff;stroke-width:2.91347;stroke-opacity:0"
       id="path244-5-3"
       cx="138.40422"
       cy="-334.45847"
       transform="scale(1,-1)"
       rx="84.182968"
       ry="81.088013" /><path
       sodipodi:type="star"
       style="fill:#0088aa;stroke:#ffffff;stroke-width:0.75;stroke-opacity:0"
       id="path1133"
       sodipodi:sides="4"
       sodipodi:cx="130.85832"
       sodipodi:cy="-191.66312"
       sodipodi:r1="11.348841"
       sodipodi:r2="7.9542489"
       sodipodi:arg1="1.5707963"
       sodipodi:arg2="2.3561945"
       inkscape:flatsided="true"
       inkscape:rounded="1.0234869e-15"
       inkscape:randomized="0"
       transform="matrix(3.2683608,0,0,-3.148201,-165.2444,-468.0041)"
       inkscape:transform-center-y="4.8736369e-06"
       d="m 130.85832,-180.31428 -11.34884,-11.34884 11.34884,-11.34884 11.34884,11.34884 z" /></g></svg>
