<?xml version="1.0" encoding="UTF-8" standalone="no"?>
<svg
   version="1.1"
   id="svg2"
   xml:space="preserve"
   width="700"
   height="700"
   viewBox="0 0 700 700"
   sodipodi:docname="adote-um-pix-logo2.svg"
   inkscape:export-filename="G:\Users\suitedoalex\sites\pix-bc-logo-0.png"
   inkscape:export-xdpi="561.73712"
   inkscape:export-ydpi="561.73712"
   inkscape:version="1.1 (c68e22c387, 2021-05-23)"
   xmlns:inkscape="http://www.inkscape.org/namespaces/inkscape"
   xmlns:sodipodi="http://sodipodi.sourceforge.net/DTD/sodipodi-0.dtd"
   xmlns="http://www.w3.org/2000/svg"
   xmlns:svg="http://www.w3.org/2000/svg"
   xmlns:rdf="http://www.w3.org/1999/02/22-rdf-syntax-ns#"
   xmlns:cc="http://creativecommons.org/ns#"
   xmlns:dc="http://purl.org/dc/elements/1.1/"><metadata
     id="metadata8"><rdf:RDF><cc:Work
         rdf:about=""><dc:format>image/svg+xml</dc:format><dc:type
           rdf:resource="http://purl.org/dc/dcmitype/StillImage" /></cc:Work></rdf:RDF></metadata><defs
     id="defs6"><clipPath
       clipPathUnits="userSpaceOnUse"
       id="clipPath18"><path
         d="M 0,1080 H 1920 V 0 H 0 Z"
         id="path16"
         inkscape:connector-curvature="0" /></clipPath><clipPath
       clipPathUnits="userSpaceOnUse"
       id="clipPath26"><path
         d="M 2.31224,1078.65 H 1921.71 V 0.354599 H 2.31224 Z"
         id="path24"
         inkscape:connector-curvature="0" /></clipPath><radialGradient
       fx="0"
       fy="0"
       cx="0"
       cy="0"
       r="1"
       gradientUnits="userSpaceOnUse"
       gradientTransform="matrix(2279.4458,0,0,1280.5419,962.0127,539.50366)"
       spreadMethod="pad"
       id="radialGradient36"><stop
         style="stop-opacity:1;stop-color:#ffffff"
         offset="0"
         id="stop32" /><stop
         style="stop-opacity:1;stop-color:#000000"
         offset="1"
         id="stop34" /></radialGradient><clipPath
       clipPathUnits="userSpaceOnUse"
       id="clipPath58"><path
         d="M 1.52588e-5,1080.19 H 1921.71 V -6.05673 H 1.52588e-5 Z"
         id="path56"
         inkscape:connector-curvature="0" /></clipPath><radialGradient
       fx="0"
       fy="0"
       cx="0"
       cy="0"
       r="1"
       gradientUnits="userSpaceOnUse"
       gradientTransform="matrix(2282.1917,0,0,1289.9785,960.85657,537.06549)"
       spreadMethod="pad"
       id="radialGradient68"><stop
         style="stop-opacity:1;stop-color:#ffffff"
         offset="0"
         id="stop64" /><stop
         style="stop-opacity:1;stop-color:#000000"
         offset="1"
         id="stop66" /></radialGradient><clipPath
       clipPathUnits="userSpaceOnUse"
       id="clipPath90"><path
         d="M 11.7831,1078.21 H 1910.67 V 42.0222 H 11.7831 Z"
         id="path88"
         inkscape:connector-curvature="0" /></clipPath><clipPath
       clipPathUnits="userSpaceOnUse"
       id="clipPath94"><path
         d="M 11.7831,1017.59 H 1879.91 V 42.0222 H 11.7831 Z"
         id="path92"
         inkscape:connector-curvature="0" /></clipPath><clipPath
       clipPathUnits="userSpaceOnUse"
       id="clipPath98"><path
         d="M 121.596,1078.21 H 1910.67 V 117.8 H 121.596 Z"
         id="path96"
         inkscape:connector-curvature="0" /></clipPath><clipPath
       clipPathUnits="userSpaceOnUse"
       id="clipPath866"><path
         d="M 0,1080 H 1920 V 0 H 0 Z"
         id="path864"
         inkscape:connector-curvature="0" /></clipPath><clipPath
       clipPathUnits="userSpaceOnUse"
       id="clipPath886"><path
         d="m 1609.83,82.2588 h 26.48 V 63.5831 h -26.48 z"
         id="path884"
         inkscape:connector-curvature="0" /></clipPath><clipPath
       clipPathUnits="userSpaceOnUse"
       id="clipPath902"><path
         d="m 1600.18,103.19 h 22.86 V 76.7676 h -22.86 z"
         id="path900"
         inkscape:connector-curvature="0" /></clipPath><clipPath
       clipPathUnits="userSpaceOnUse"
       id="clipPath918"><path
         d="m 1618.19,89.9323 h 22.12 V 63.6456 h -22.12 z"
         id="path916"
         inkscape:connector-curvature="0" /></clipPath><clipPath
       clipPathUnits="userSpaceOnUse"
       id="clipPath934"><path
         d="m 1604.2,103.117 h 26.46 V 84.441 h -26.46 z"
         id="path932"
         inkscape:connector-curvature="0" /></clipPath><clipPath
       clipPathUnits="userSpaceOnUse"
       id="clipPath970"><path
         d="M 0,1080 H 1920 V 0 H 0 Z"
         id="path968"
         inkscape:connector-curvature="0" /></clipPath><clipPath
       clipPathUnits="userSpaceOnUse"
       id="clipPath970-8"><path
         d="M 0,1080 H 1920 V 0 H 0 Z"
         id="path968-3"
         inkscape:connector-curvature="0" /></clipPath><clipPath
       clipPathUnits="userSpaceOnUse"
       id="clipPath970-9"><path
         d="M 0,1080 H 1920 V 0 H 0 Z"
         id="path968-7"
         inkscape:connector-curvature="0" /></clipPath></defs><sodipodi:namedview
     pagecolor="#ffffff"
     bordercolor="#666666"
     borderopacity="1"
     objecttolerance="10"
     gridtolerance="10"
     guidetolerance="10"
     inkscape:pageopacity="0"
     inkscape:pageshadow="2"
     inkscape:window-width="1920"
     inkscape:window-height="1017"
     id="namedview4"
     showgrid="false"
     inkscape:zoom="0.3592361"
     inkscape:cx="-267.23372"
     inkscape:cy="302.02978"
     inkscape:window-x="-8"
     inkscape:window-y="-8"
     inkscape:window-maximized="1"
     inkscape:current-layer="g10"
     inkscape:document-rotation="0"
     inkscape:pagecheckerboard="0" /><g
     id="g10"
     inkscape:groupmode="layer"
     inkscape:label="pix-banco-central-logo"
     transform="matrix(1.3333333,0,0,-1.3333333,0,700)"><path
       d="m 482.16619,199.95546 c -11.59901,-10.86808 -26.58299,-16.73859 -42.18279,-16.526 l -84.35919,1.16272 c -5.9291,0.0911 -11.34718,-5.0032 -11.65048,-10.91632 L 339.63635,89.111663 C 338.83191,73.531081 331.99991,58.960355 320.40088,48.092252 l -8.73751,-8.186903 106.84194,-1.475567 c 18.04526,-0.248276 39.36242,1.151563 51.07596,13.52713 9.94579,10.507949 11.65231,30.680936 12.43785,45.984253 l 5.48914,107.019715 z"
       style="fill:#0088aa;fill-opacity:1;fill-rule:nonzero;stroke:none;stroke-width:1.87007"
       id="path994"
       inkscape:connector-curvature="0"
       sodipodi:nodetypes="sccccsccsccs" /><g
       id="g4"
       transform="matrix(0.80985052,0,0,-0.76923301,133.932,396.79561)"><path
         d="m 165.37418,46.071755 c -34.06635,-0.03264 -66.618702,13.857236 -91.945002,39.13741 -25.32629,25.280175 -40.24074,58.908465 -42.02307,94.724505 l -0.93085,18.70554 -18.06758,-0.0173 c -34.066354,-0.0326 -66.894547,13.85697 -92.220841,39.13714 -25.253727,25.20774 -40.168177,58.83603 -41.943297,94.50707 -1.78232,35.81604 9.78395,69.4697 32.664465,94.72356 22.807945,25.32629 54.119979,39.13235 88.18633291,39.16499 L 258.10896,466.40285 c 3.58593,0.003 7.04075,-1.51587 9.50807,-3.9787 2.46731,-2.46282 4.15762,-5.94147 4.34523,-9.71158 l 14.0378,-272.38994 c 1.78232,-35.81605 -9.78395,-69.46971 -32.5919,-94.796005 -22.73537,-25.39873 -53.96762,-39.422229 -88.03398,-39.45487 z M 259.72982,180.22494 246.37754,438.83949 0.46535791,438.60386 C -26.567051,438.57796 -51.396007,427.53333 -69.498587,407.43194 c -18.102581,-20.10138 -27.329378,-46.71977 -25.849709,-75.06802 1.407101,-28.27582 13.216783,-54.94656 33.2456,-74.9389 20.101385,-20.06478 46.099726,-31.13322 73.132134,-31.10732 l 31.17002,0.0299 c 7.30979,0.007 13.47808,-6.15006 13.86053,-13.83528 l 1.61636,-32.48095 c 1.41432,-28.42082 13.29656,-55.16399 33.32538,-75.15633 20.028822,-19.992345 45.954592,-30.988349 72.921652,-31.035016 27.03241,0.0259 51.78879,11.142973 69.89138,31.244356 18.17514,20.02895 27.32937,46.71977 25.91506,75.14059 z"
         id="path2" /></g><ellipse
       style="fill:#2ca089;stroke:#ffffff;stroke-width:2.91347;stroke-opacity:0"
       id="path244-5"
       cx="302.9989"
       cy="-118.56337"
       transform="scale(1,-1)"
       rx="84.182968"
       ry="81.088013" /><ellipse
       style="fill:#2ca089;stroke:#ffffff;stroke-width:2.91347;stroke-opacity:0"
       id="path244-5-3"
       cx="126.20208"
       cy="-117.33105"
       transform="scale(1,-1)"
       rx="84.182968"
       ry="81.088013" /></g></svg>
