<?xml version="1.0" encoding="UTF-8" standalone="no"?>
<svg
   xmlns:dc="http://purl.org/dc/elements/1.1/"
   xmlns:cc="http://creativecommons.org/ns#"
   xmlns:rdf="http://www.w3.org/1999/02/22-rdf-syntax-ns#"
   xmlns:svg="http://www.w3.org/2000/svg"
   xmlns="http://www.w3.org/2000/svg"
   xmlns:sodipodi="http://sodipodi.sourceforge.net/DTD/sodipodi-0.dtd"
   xmlns:inkscape="http://www.inkscape.org/namespaces/inkscape"
   version="1.1"
   id="svg2"
   xml:space="preserve"
   width="700"
   height="700"
   viewBox="0 0 700 700"
   sodipodi:docname="adote-um-pix-logo.svg"
   inkscape:export-filename="G:\Users\suitedoalex\sites\pix-bc-logo-0.png"
   inkscape:export-xdpi="561.73712"
   inkscape:export-ydpi="561.73712"
   inkscape:version="1.0.2-2 (e86c870879, 2021-01-15)"><metadata
     id="metadata8"><rdf:RDF><cc:Work
         rdf:about=""><dc:format>image/svg+xml</dc:format><dc:type
           rdf:resource="http://purl.org/dc/dcmitype/StillImage" /><dc:title /></cc:Work></rdf:RDF></metadata><defs
     id="defs6"><clipPath
       clipPathUnits="userSpaceOnUse"
       id="clipPath18"><path
         d="M 0,1080 H 1920 V 0 H 0 Z"
         id="path16"
         inkscape:connector-curvature="0" /></clipPath><clipPath
       clipPathUnits="userSpaceOnUse"
       id="clipPath26"><path
         d="M 2.31224,1078.65 H 1921.71 V 0.354599 H 2.31224 Z"
         id="path24"
         inkscape:connector-curvature="0" /></clipPath><radialGradient
       fx="0"
       fy="0"
       cx="0"
       cy="0"
       r="1"
       gradientUnits="userSpaceOnUse"
       gradientTransform="matrix(2279.4458,0,0,1280.5419,962.0127,539.50366)"
       spreadMethod="pad"
       id="radialGradient36"><stop
         style="stop-opacity:1;stop-color:#ffffff"
         offset="0"
         id="stop32" /><stop
         style="stop-opacity:1;stop-color:#000000"
         offset="1"
         id="stop34" /></radialGradient><clipPath
       clipPathUnits="userSpaceOnUse"
       id="clipPath58"><path
         d="M 1.52588e-5,1080.19 H 1921.71 V -6.05673 H 1.52588e-5 Z"
         id="path56"
         inkscape:connector-curvature="0" /></clipPath><radialGradient
       fx="0"
       fy="0"
       cx="0"
       cy="0"
       r="1"
       gradientUnits="userSpaceOnUse"
       gradientTransform="matrix(2282.1917,0,0,1289.9785,960.85657,537.06549)"
       spreadMethod="pad"
       id="radialGradient68"><stop
         style="stop-opacity:1;stop-color:#ffffff"
         offset="0"
         id="stop64" /><stop
         style="stop-opacity:1;stop-color:#000000"
         offset="1"
         id="stop66" /></radialGradient><clipPath
       clipPathUnits="userSpaceOnUse"
       id="clipPath90"><path
         d="M 11.7831,1078.21 H 1910.67 V 42.0222 H 11.7831 Z"
         id="path88"
         inkscape:connector-curvature="0" /></clipPath><clipPath
       clipPathUnits="userSpaceOnUse"
       id="clipPath94"><path
         d="M 11.7831,1017.59 H 1879.91 V 42.0222 H 11.7831 Z"
         id="path92"
         inkscape:connector-curvature="0" /></clipPath><clipPath
       clipPathUnits="userSpaceOnUse"
       id="clipPath98"><path
         d="M 121.596,1078.21 H 1910.67 V 117.8 H 121.596 Z"
         id="path96"
         inkscape:connector-curvature="0" /></clipPath><clipPath
       clipPathUnits="userSpaceOnUse"
       id="clipPath866"><path
         d="M 0,1080 H 1920 V 0 H 0 Z"
         id="path864"
         inkscape:connector-curvature="0" /></clipPath><clipPath
       clipPathUnits="userSpaceOnUse"
       id="clipPath886"><path
         d="m 1609.83,82.2588 h 26.48 V 63.5831 h -26.48 z"
         id="path884"
         inkscape:connector-curvature="0" /></clipPath><clipPath
       clipPathUnits="userSpaceOnUse"
       id="clipPath902"><path
         d="m 1600.18,103.19 h 22.86 V 76.7676 h -22.86 z"
         id="path900"
         inkscape:connector-curvature="0" /></clipPath><clipPath
       clipPathUnits="userSpaceOnUse"
       id="clipPath918"><path
         d="m 1618.19,89.9323 h 22.12 V 63.6456 h -22.12 z"
         id="path916"
         inkscape:connector-curvature="0" /></clipPath><clipPath
       clipPathUnits="userSpaceOnUse"
       id="clipPath934"><path
         d="m 1604.2,103.117 h 26.46 V 84.441 h -26.46 z"
         id="path932"
         inkscape:connector-curvature="0" /></clipPath><clipPath
       clipPathUnits="userSpaceOnUse"
       id="clipPath970"><path
         d="M 0,1080 H 1920 V 0 H 0 Z"
         id="path968"
         inkscape:connector-curvature="0" /></clipPath><clipPath
       clipPathUnits="userSpaceOnUse"
       id="clipPath970-8"><path
         d="M 0,1080 H 1920 V 0 H 0 Z"
         id="path968-3"
         inkscape:connector-curvature="0" /></clipPath><clipPath
       clipPathUnits="userSpaceOnUse"
       id="clipPath970-9"><path
         d="M 0,1080 H 1920 V 0 H 0 Z"
         id="path968-7"
         inkscape:connector-curvature="0" /></clipPath></defs><sodipodi:namedview
     pagecolor="#ffffff"
     bordercolor="#666666"
     borderopacity="1"
     objecttolerance="10"
     gridtolerance="10"
     guidetolerance="10"
     inkscape:pageopacity="0"
     inkscape:pageshadow="2"
     inkscape:window-width="1360"
     inkscape:window-height="705"
     id="namedview4"
     showgrid="false"
     inkscape:zoom="0.3592361"
     inkscape:cx="-265.98596"
     inkscape:cy="301.50384"
     inkscape:window-x="-8"
     inkscape:window-y="-8"
     inkscape:window-maximized="1"
     inkscape:current-layer="g10"
     inkscape:document-rotation="0" /><g
     id="g10"
     inkscape:groupmode="layer"
     inkscape:label="pix-banco-central-logo"
     transform="matrix(1.3333333,0,0,-1.3333333,0,700)"><g
       id="g1142"
       transform="matrix(3.2683608,0,0,3.148201,-165.2444,-484.5041)"><path
         d="m 165.58868,216.99945 c -4.86331,0 -9.43688,1.89356 -12.87537,5.33087 l -18.59159,18.59102 c -1.30474,1.30881 -3.58015,1.30473 -4.88489,0 l -18.65922,-18.65923 c -3.43906,-3.43673 -8.01263,-5.33029 -12.875947,-5.33029 H 94.038145 L 117.584,193.38538 c 3.97702,-3.9767 9.02934,-8.28199 14.23358,-7.95744 4.41885,0.27558 9.02005,4.58087 12.39689,7.95744 l 23.61406,23.61407 z"
         style="fill:#999999;fill-opacity:1;fill-rule:nonzero;stroke:none;stroke-width:0.582991"
         id="path994"
         inkscape:connector-curvature="0"
         sodipodi:nodetypes="sccccsccsccs" /><path
         d="m 187.35944,263.16054 -12.70406,4.353 c 1.51257,-8.73795 -3.28494,0.96058 -3.62294,0.83925 l -7.27044,-2.6097 c -3.1573,-1.1333 -14.03466,6.41111 -16.40452,4.03954 l -9.36808,-14.88016 c -1.73907,-1.73965 -4.02498,-2.61064 -6.30914,-2.61064 -2.28591,0 -4.57007,0.87099 -6.30971,2.60889 l -11.29319,14.54876 c -2.37045,2.37161 -12.76008,-2.59488 -16.114614,-2.59488 h -7.455714 c -1.776389,-13.04269 -6.660517,0.86331 -6.960758,0.97646 l -9.107021,-4.67052 c -7.353854,-7.35327 -7.353854,-19.27603 0,-26.63046 L 88.7651,222.20423 c 0.300241,0.1131 0.619137,0.19355 0.959021,0.19355 h 7.977655 c 3.354534,0 6.637354,1.36012 9.007804,3.73173 l 18.65922,18.65922 c 3.3726,3.36969 9.25149,3.37144 12.6206,-0.002 l 18.59159,-18.58926 c 2.36986,-2.37219 5.65327,-3.73231 9.0078,-3.73231 h 6.48753 c 0.35971,0 0.69901,-0.0781 1.01382,-0.20405 l 14.2693,14.26872 c 7.35385,7.35443 7.35385,19.27719 0,26.63046"
         style="fill:#4d4d4d;fill-opacity:1;fill-rule:nonzero;stroke:none;stroke-width:0.582991"
         id="path1002"
         inkscape:connector-curvature="0"
         sodipodi:nodetypes="ccssccsccscccccssccccssccc" /><g
         id="g4"
         transform="matrix(0.32194836,0,0,-0.31403434,55.065534,305.58485)"><path
           d="m 433.08639,67.001 c -24.7,-24.7 -57.4,-38.2 -92.3,-38.2 -34.9,0 -67.7,13.6 -92.4,38.3 l -12.9,12.9 -13.1,-13.1 c -24.7,-24.7 -57.6,-38.4 -92.5,-38.4 -34.800002,0 -67.600002,13.6 -92.200002,38.2 -24.7,24.7 -38.29999936,57.5 -38.19999937,92.4 0,34.9 13.69999937,67.6 38.39999937,92.3 l 187.800002,187.8 c 2.6,2.6 6.1,4 9.5,4 3.4,0 6.9,-1.3 9.5,-3.9 l 188.2,-187.5 c 24.7,-24.7 38.3,-57.5 38.3,-92.4 0.1,-34.9 -13.4,-67.7 -38.1,-92.4 z m -19.2,165.7 -178.7,178 -178.300002,-178.3 c -19.6,-19.6 -30.4,-45.6 -30.4,-73.3 0,-27.7 10.7,-53.7 30.3,-73.2 19.5,-19.5 45.500002,-30.3 73.100002,-30.3 27.7,0 53.8,10.8 73.4,30.4 l 22.6,22.6 c 5.3,5.3 13.8,5.3 19.1,0 l 22.4,-22.4 c 19.6,-19.6 45.7,-30.4 73.3,-30.4 27.6,0 53.6,10.8 73.2,30.3 19.6,19.6 30.3,45.6 30.3,73.3 0.1,27.7 -10.7,53.7 -30.3,73.3 z"
           id="path2" /></g><ellipse
         style="fill:#4d4d4d;stroke:#ffffff;stroke-width:0.908269;stroke-opacity:0"
         id="path244-5"
         cx="168.71741"
         cy="-255.28703"
         transform="scale(1,-1)"
         rx="25.756939"
         ry="25.756937" /><ellipse
         style="fill:#4d4d4d;stroke:#ffffff;stroke-width:0.908269;stroke-opacity:0"
         id="path244-5-3"
         cx="92.905479"
         cy="-254.8956"
         transform="scale(1,-1)"
         rx="25.756939"
         ry="25.756937" /><path
         sodipodi:type="star"
         style="fill:#999999;stroke:#ffffff;stroke-width:0.75;stroke-opacity:0"
         id="path1133"
         sodipodi:sides="4"
         sodipodi:cx="130.85832"
         sodipodi:cy="-191.66312"
         sodipodi:r1="11.348841"
         sodipodi:r2="7.9542489"
         sodipodi:arg1="1.5707963"
         sodipodi:arg2="2.3561945"
         inkscape:flatsided="true"
         inkscape:rounded="1.0234869e-15"
         inkscape:randomized="0"
         d="m 130.85832,-180.31428 -11.34884,-11.34884 11.34884,-11.34884 11.34884,11.34884 z"
         transform="scale(1,-1)"
         inkscape:transform-center-y="4.8736369e-06" /></g></g></svg>
